<svg id="Layer_1" enable-background="new 0 0 256 256" height="512" viewBox="0 0 256 256" width="512" xmlns="http://www.w3.org/2000/svg"><g id="Layer_38"><g><path d="m207.5 91h-97.5c-2.4 0-4.3 1.9-4.3 4.3v131.8c0 9.6 7.3 17.8 16.9 18.2 9.8.5 18.1-7.1 18.6-16.9 0-.3 0-.6 0-.9h70.7v-132.2c-.1-2.4-2-4.3-4.4-4.3z" fill="#edf4fc"/><g fill="#fc657e"><path d="m124.7 142.7h7.2c1 0 1.8.8 1.8 1.8v7.2c0 1-.8 1.8-1.8 1.8h-7.2c-1 0-1.8-.8-1.8-1.8v-7.2c.1-1 .9-1.8 1.8-1.8z"/><path d="m124.7 182.8h7.2c1 0 1.8.8 1.8 1.8v7.2c0 1-.8 1.8-1.8 1.8h-7.2c-1 0-1.8-.8-1.8-1.8v-7.2c.1-1 .9-1.8 1.8-1.8z"/><path d="m124.7 202.8h7.2c1 0 1.8.8 1.8 1.8v7.2c0 1-.8 1.8-1.8 1.8h-7.2c-1 0-1.8-.8-1.8-1.8v-7.2c.1-1 .9-1.8 1.8-1.8z"/><path d="m124.7 122.7h7.2c1 0 1.8.8 1.8 1.8v7.2c0 1-.8 1.8-1.8 1.8h-7.2c-1 0-1.8-.8-1.8-1.8v-7.2c.1-1.1.9-1.8 1.8-1.8z"/><path d="m124.7 162.7h7.2c1 0 1.8.8 1.8 1.8v7.2c0 1-.8 1.8-1.8 1.8h-7.2c-1 0-1.8-.8-1.8-1.8v-7.2c.1-1 .9-1.8 1.8-1.8z"/></g><path d="m141.2 227.6c0 9.8-7.9 17.7-17.7 17.7h106.1c9.8 0 17.7-7.9 17.7-17.7z" fill="#dae6f1"/><path d="m144.8 62.4c-.2-2-1.9-3.5-3.9-3.5h-115c-2 0-3.7 1.5-3.9 3.5l-6.5 57h3.5c-2.7-5.7-.3-12.5 5.4-15.1 4-1.9 8.8-1.3 12.2 1.5l5 4.2c2.6-1.3 5.6-1.3 8.1 0l5-4.2c4.8-4 12-3.4 16 1.4 2.8 3.4 3.4 8.2 1.5 12.2h4.8c3.6 0 6.4 2.9 6.4 6.4v13.5c0 2.8-1.8 5.3-4.5 6.1v35.4c0 3.6-2.9 6.4-6.4 6.4h33.1v-92c0-2.4 1.9-4.3 4.3-4.3h38z" fill="#f5c84c"/><circle cx="49.1" cy="75.6" fill="#edf4fc" r="6.5"/><circle cx="117.7" cy="75.1" fill="#edf4fc" r="6.5"/><circle cx="233.1" cy="177.4" fill="#fc657e" r="3.1"/><circle cx="85.1" cy="207.4" fill="#87d147" r="3.1"/><circle cx="3.1" cy="52.4" fill="#f5c84c" r="3.1"/><path d="m28.1 27.5h-2.1v-2.1c0-1.6-1.3-2.9-2.9-2.9s-2.9 1.3-2.9 2.9v2.1h-2.2c-1.6 0-2.9 1.3-2.9 2.9s1.3 2.9 2.9 2.9h2.1v2.1c0 1.6 1.3 2.9 2.9 2.9s2.9-1.3 2.9-2.9v-2.1h2.1c1.6 0 2.9-1.3 2.9-2.9.1-1.6-1.2-2.9-2.8-2.9z" fill="#70d6f9"/><path d="m255.8 199.6c-5-.9-9-4.8-10-9.8 0-.1-.1-.2-.3-.2-.1 0-.2.1-.2.2-1 5-5 8.9-10 9.8-.1 0-.2.1-.2.2s.1.2.2.2c5 .9 9 4.8 10 9.8 0 .1.1.2.3.2.1 0 .2-.1.2-.2 1-5 5-8.9 10-9.8.1 0 .2-.1.2-.2s-.1-.2-.2-.2z" fill="#f5c84c"/><path d="m77 145.7h-62.9c-.7 0-1.3-.1-1.9-.3v35.4c0 3.6 2.9 6.4 6.4 6.4h53.9c3.6 0 6.4-2.9 6.4-6.4v-35.4c-.5.2-1.2.3-1.9.3z" fill="#3caadc"/><path d="m14.1 119.4h62.9c3.6 0 6.4 2.9 6.4 6.4v13.5c0 3.6-2.9 6.4-6.4 6.4h-62.9c-3.6 0-6.4-2.9-6.4-6.4v-13.5c0-3.6 2.9-6.4 6.4-6.4z" fill="#70d6f9"/><path d="m45.6 109c-5 0-9 4-9 9 0 .5 0 1 .1 1.4h17.7c.8-4.9-2.5-9.5-7.4-10.3-.4-.1-.9-.1-1.4-.1z" fill="#fc657e"/><path d="m41.5 110-5-4.2c-4.8-4-12-3.4-16 1.4-2.8 3.4-3.4 8.2-1.5 12.2h17.8c-.7-3.9 1.3-7.7 4.7-9.4z" fill="#ef4460"/><path d="m73 111.5c-1.6-6.1-7.9-9.7-13.9-8-1.6.4-3.1 1.2-4.3 2.2l-5 4.2c3.5 1.8 5.4 5.6 4.8 9.4h17.8c1-2.4 1.3-5.2.6-7.8z" fill="#ef4460"/><path d="m37.2 119.4h16.8v26.4h-16.8z" fill="#fcdd86"/><path d="m37.2 145.7h16.8v41.5h-16.8z" fill="#f5c84c"/><path d="m247.3 225.1h-33v-129.8c0-3.8-3-6.8-6.8-6.8h-57.2l-3-26.4c-.4-3.3-3.1-5.7-6.4-5.7h-20.4v-11.4c0-20.4-16.5-36.9-36.9-36.9-20.4.1-36.9 16.6-36.9 36.9v11.3h-20.8c-3.3 0-6.1 2.5-6.4 5.7l-6.2 54.8c-4.5.5-8 4.3-8 8.9v13.5c0 3.2 1.7 6.1 4.5 7.7v33.8c0 4.9 4 8.9 8.9 8.9h53.9 30.6v37.3c-.2 10.9 8.3 20.1 19.3 20.7h1 106.1c11.2 0 20.2-9.1 20.2-20.2 0-1.2-1.1-2.3-2.5-2.3zm-195.6-180.1c0-17.6 14.3-31.9 31.9-31.9s31.9 14.3 31.9 31.9v11.3h-63.8zm66 26.1c2.2 0 4 1.8 4 4s-1.8 4-4 4-4-1.8-4-4c0-2.2 1.8-4 4-4zm-68.6.5c2.2 0 4 1.8 4 4s-1.8 4-4 4-4-1.8-4-4c0-2.2 1.8-4 4-4zm-14.4 113.2h-16c-2.2 0-3.9-1.8-3.9-3.9v-32.6h20v36.5zm0-41.6h-20.6c-.2 0-.5 0-.7-.1-.1 0-.2 0-.3-.1-1.7-.4-3-2-3-3.8v-13.5c0-2.2 1.8-3.9 3.9-3.9h20.5v21.4zm-.5-26.3h-13.5c-.3-1.2-.4-2.4-.2-3.6.5-3.4 2.8-6.2 6.1-7.2 6.1-1.9 9.6 3 10.9 3.8-1.9 1.8-3.1 4.3-3.3 7zm17.3 67.9h-11.8v-36.5h11.8zm0-41.6h-11.8v-21.4h11.8zm-12.3-26.3c.6-3.5 3.9-5.9 7.5-5.3 2.7.5 4.8 2.6 5.3 5.3zm14.5-7.1c1.4-.8 4.9-5.7 10.9-3.8 4.5 1.4 7.1 6.2 5.9 10.8h-13.5c-.2-2.6-1.4-5.1-3.3-7zm22.8 71c0 2.2-1.8 3.9-3.9 3.9h-16v-36.5h20v32.6zm.5-37.6h-20.5v-21.4h20.5c2.2 0 3.9 1.8 3.9 3.9v13.5c.1 2.3-1.7 4-3.9 4zm26.2-47.9v89.5h-22.6c.6-1.2.9-2.6.9-3.9v-33.9c2.8-1.6 4.5-4.6 4.5-7.8v-13.5c0-4.9-4-8.9-8.9-8.9h-1.4c1.2-6.8-2.9-13.5-9.5-15.6-9.4-3-15 4.7-16.9 5.8-2.4-.8-4.9-.8-7.2 0-3.1-2.4-4.4-3.9-6.8-5.1-5.2-2.4-11.3-1.5-15.5 2.5l4.7-41.8c.1-.7.7-1.3 1.5-1.3h20.9v5.5c-4.8 1.3-7.6 6.3-6.3 11.1s6.3 7.6 11.1 6.3 7.6-6.3 6.3-11.1c-.8-3-3.1-5.4-6.1-6.3v-5.6h63.7v5c-4.8 1.3-7.7 6.2-6.4 11s6.2 7.7 11 6.4 7.7-6.2 6.4-11c-.8-3-3.1-5.4-6-6.3v-5.1h20.4c.7 0 1.4.6 1.5 1.3l2.9 25.8h-35.4c-.2 0-.5 0-.7 0-3.5.6-6.1 3.5-6.1 7zm19.5 147.5c-8.3-.5-14.6-7.4-14.5-15.7v-131.8c0-1 .8-1.8 1.8-1.8h97.5c1 0 1.8.8 1.8 1.8v129.8h-68.2c-1.4 0-2.5 1.1-2.5 2.5 0 8.4-6.9 15.3-15.3 15.2-.2.1-.4 0-.6 0zm106.9.1h-92.8c3.8-3.3 6.2-7.8 6.8-12.7h101.1c-1.3 7.3-7.7 12.6-15.1 12.7z"/><path d="m131.9 140.2h-7.2c-2.3 0-4.2 1.9-4.3 4.3v7.2c0 2.3 1.9 4.2 4.3 4.3h7.2c2.3 0 4.2-1.9 4.3-4.3v-7.2c-.1-2.4-2-4.3-4.3-4.3zm-.8 10.6h-5.7v-5.7h5.7z"/><path d="m194 145.5h-49.7c-1.4 0-2.5 1.1-2.5 2.5s1.1 2.5 2.5 2.5h49.7c1.4 0 2.5-1.1 2.5-2.5s-1.1-2.5-2.5-2.5z"/><path d="m131.9 180.3h-7.2c-2.3 0-4.2 1.9-4.3 4.2v7.2c0 2.3 1.9 4.2 4.3 4.3h7.2c2.3 0 4.2-1.9 4.3-4.3v-7.2c-.1-2.3-2-4.2-4.3-4.2zm-.8 10.6h-5.7v-5.7h5.7z"/><path d="m194 185.6h-49.7c-1.4 0-2.5 1.1-2.5 2.5s1.1 2.5 2.5 2.5h49.7c1.4 0 2.5-1.1 2.5-2.5s-1.1-2.5-2.5-2.5z"/><path d="m131.9 200.3h-7.2c-2.3 0-4.2 1.9-4.3 4.2v7.2c0 2.3 1.9 4.2 4.3 4.3h7.2c2.3 0 4.2-1.9 4.3-4.3v-7.2c-.1-2.3-2-4.2-4.3-4.2zm-.8 10.7h-5.7v-5.7h5.7z"/><path d="m194 205.6h-49.7c-1.4 0-2.5 1.1-2.5 2.5s1.1 2.5 2.5 2.5h49.7c1.4 0 2.5-1.1 2.5-2.5s-1.1-2.5-2.5-2.5z"/><path d="m131.9 120.2h-7.2c-2.3 0-4.2 1.9-4.3 4.3v7.2c0 2.3 1.9 4.2 4.3 4.3h7.2c2.3 0 4.2-1.9 4.3-4.3v-7.2c-.1-2.4-2-4.3-4.3-4.3zm-.8 10.6h-5.7v-5.7h5.7z"/><path d="m194 125.5h-49.7c-1.4 0-2.5 1.1-2.5 2.5s1.1 2.5 2.5 2.5h49.7c1.4 0 2.5-1.1 2.5-2.5s-1.1-2.5-2.5-2.5z"/><path d="m131.9 160.2h-7.2c-2.3 0-4.2 1.9-4.3 4.2v7.2c0 2.3 1.9 4.2 4.3 4.2h7.2c2.3 0 4.2-1.9 4.3-4.2v-7.2c-.1-2.3-2-4.2-4.3-4.2zm-.8 10.7h-5.7v-5.7h5.7z"/><path d="m194 165.6h-49.7c-1.4 0-2.5 1.1-2.5 2.5s1.1 2.5 2.5 2.5h49.7c1.4 0 2.5-1.1 2.5-2.5s-1.1-2.5-2.5-2.5z"/></g></g></svg>